<?xml version="1.0" encoding="UTF-8"?><svg id="a" xmlns="http://www.w3.org/2000/svg" xmlns:xlink="http://www.w3.org/1999/xlink" viewBox="0 0 1527.055 367.736"><defs><linearGradient id="c" x1="797.858" y1="434.484" x2="797.858" y2="-65.128" gradientUnits="userSpaceOnUse"><stop offset="0" stop-color="#00007c"/><stop offset=".025" stop-color="#000a81"/><stop offset=".191" stop-color="#0049a4"/><stop offset=".331" stop-color="#0077be"/><stop offset=".438" stop-color="#0093ce"/><stop offset=".5" stop-color="#009ed4"/><stop offset=".562" stop-color="#0093ce"/><stop offset=".669" stop-color="#0077be"/><stop offset=".809" stop-color="#0049a4"/><stop offset=".975" stop-color="#000a81"/><stop offset="1" stop-color="#00007c"/></linearGradient><linearGradient id="e" x1="780.64" y1="434.484" x2="780.64" y2="-65.128" xlink:href="#c"/><linearGradient id="h" x1="745.674" y1="434.484" x2="745.674" y2="-65.128" xlink:href="#c"/><linearGradient id="j" x1="690.072" y1="434.484" x2="690.072" y2="-65.128" xlink:href="#c"/><linearGradient id="l" x1="195.931" y1="434.484" x2="195.931" y2="-65.128" xlink:href="#c"/><linearGradient id="m" x1="383.098" y1="434.484" x2="383.098" y2="-65.128" xlink:href="#c"/><linearGradient id="n" x1="544.916" y1="434.484" x2="544.916" y2="-65.128" xlink:href="#c"/><linearGradient id="o" x1="709.432" y1="434.484" x2="709.432" y2="-65.128" xlink:href="#c"/><linearGradient id="p" x1="880.69" y1="434.484" x2="880.69" y2="-65.128" xlink:href="#c"/><linearGradient id="q" x1="1054.78" y1="434.484" x2="1054.78" y2="-65.128" xlink:href="#c"/><linearGradient id="r" x1="1232.912" y1="434.484" x2="1232.912" y2="-65.128" xlink:href="#c"/><linearGradient id="s" x1="1381.516" y1="434.484" x2="1381.516" y2="-65.128" xlink:href="#c"/></defs><g id="b"><path id="d" d="M240.976,351.221c-139.426-13.109-161.873-22.909-162.433-23.816s-13.408-7.057,90.648-6.272c104.057,.786,1245.159,7.58,1276.127,7.905,30.968,.325,72.207,1.326,72.181,5.381s16.384,18.443-145.263,26.577c-161.646,8.135-416.577,6.983-525.129,6.169-108.552-.814-466.705-2.835-606.132-15.944Z" style="fill:url(#c);"/><path id="f" d="M1436.39,323.135c24.391,.32,90.499,.886,90.665-7.088l-8.638-19.783s-4.035-9.176-108.419-9.618c0,0-1255.245-8.911-1294.205-9.1-38.96-.188-81.468,.12-81.566,4.828-.098,4.708,14.369,20.822,17.6,24.054,3.231,3.232,20.737,6.913,108.471,7.169,0,0,1251.702,9.218,1276.093,9.538Z" style="fill:url(#e);"/></g><g id="g"><path id="i" d="M90.85,82.032l1326.198,8.989s84.322,.519,73.308-6.321c-11.013-6.839-45.306-21.228-45.306-21.228,0,0-23.519-6.783-91.326-7.323-67.806-.54-1236.135-8.622-1274.101-8.893C41.656,46.984,.006,47.604,0,51.287c0,0,5.886,23.369,5.87,24.15s9.033,5.651,84.979,6.595Z" style="fill:url(#h);"/><path id="k" d="M82.531,41.248c80.838,.91,1190.293,8.91,1234.729,8.692s86.954-.738,45.925-9.22c-41.03-8.482-161.497-29.826-520.666-36.357C483.35-2.167,105.692-4.983,18.874,22.771,10.42,25.474,.424,30.439,.349,34.111s1.344,6.227,82.182,7.138Z" style="fill:url(#j);"/></g><g><path d="M268.749,263.888c-7.193,0-14.252-1.125-21.171-3.371-6.923-2.246-14.791-7.775-23.599-16.587l-19.418-19.418c-7.914-8.092-16.586-14.024-26.026-17.801-9.439-3.775-21.264-5.663-35.465-5.663h-8.361v60.143h-35.6V124.184l-2.697-21.846h119.477c11.504,0,20.539,1.53,27.104,4.585,6.562,3.06,11.416,7.059,14.564,12.002,3.144,4.947,5.167,10.206,6.068,15.777,.897,5.575,1.348,10.88,1.348,15.912v5.125c0,3.957-.539,8.36-1.618,13.215-1.079,4.854-3.147,9.621-6.203,14.294-3.059,4.678-7.417,8.631-13.08,11.867s-13.081,5.124-22.25,5.663c2.335,1.261,5.301,3.194,8.9,5.799,3.594,2.608,7.324,5.44,11.192,8.496,3.864,3.059,7.417,5.845,10.653,8.36,3.236,2.52,5.752,4.315,7.551,5.394,6.473,3.776,12.225,6.385,17.261,7.821,5.032,1.441,9.17,2.251,12.406,2.428,3.236,.181,5.125,.27,5.664,.27l-5.394,21.846c-1.618,.539-4.315,1.121-8.091,1.753-3.776,.628-8.184,.944-13.215,.944Zm-93.585-87.383c6.831,0,12.945-.135,18.339-.404s10.249-.582,14.564-.944c7.91-.897,13.438-3.102,16.586-6.607,3.144-3.506,4.72-8.045,4.72-13.62v-6.203c0-5.752-1.53-10.607-4.585-14.564-3.059-3.953-8.542-5.934-16.452-5.934h-73.628v46.928c7.91,.539,15.192,.902,21.846,1.079,6.65,.181,12.853,.27,18.609,.27Z" style="fill:url(#l);"/><path d="M347.229,261.191c-8.993,0-15.913-1.167-20.767-3.506-4.854-2.335-8.318-5.302-10.383-8.9-2.069-3.595-3.329-7.37-3.776-11.327-.451-3.953-.674-7.552-.674-10.788v-51.782c0-2.697,.224-5.976,.674-9.844,.447-3.864,1.707-7.686,3.776-11.462,2.065-3.776,5.571-6.919,10.518-9.439,4.943-2.516,11.82-3.776,20.632-3.776h57.985c11.867,0,21.171,1.125,27.914,3.371,6.743,2.25,11.504,5.891,14.294,10.923,2.786,5.036,4.181,11.778,4.181,20.228v39.915h-47.197c-16.182,0-29.355-.357-39.511-1.078-10.16-.717-16.949-1.168-20.362-1.349v14.833c-.181,7.193,4.134,10.788,12.946,10.788h13.754c9.709,0,19.191-.135,28.453-.404,9.258-.27,17.754-.628,25.487-1.079,7.729-.446,13.932-.851,18.609-1.214l10.788,17.531c0,5.575-17.711,8.36-53.13,8.36h-54.209Zm-2.697-69.582h74.167v-17.261c0-3.595-.405-6.111-1.214-7.552-.809-1.437-3.194-2.335-7.147-2.697-3.957-.358-10.699-.539-20.228-.539h-32.633c-8.63,0-12.946,3.599-12.946,10.788v17.261Z" style="fill:url(#m);"/><path d="M523.61,261.191l-55.558-120.825h37.758l31.015,74.437,7.012,19.419h2.697l7.012-19.419,31.555-74.437h36.679l-4.315,16.452-50.704,104.374h-43.152Z" style="fill:url(#n);"/><path d="M673.562,261.191c-8.993,0-15.913-1.167-20.767-3.506-4.854-2.335-8.318-5.302-10.383-8.9-2.069-3.595-3.329-7.37-3.776-11.327-.451-3.953-.674-7.552-.674-10.788v-51.782c0-2.697,.224-5.976,.674-9.844,.447-3.864,1.707-7.686,3.776-11.462,2.065-3.776,5.571-6.919,10.518-9.439,4.943-2.516,11.82-3.776,20.632-3.776h57.985c11.867,0,21.171,1.125,27.914,3.371,6.743,2.25,11.505,5.891,14.294,10.923,2.785,5.036,4.18,11.778,4.18,20.228v39.915h-47.197c-16.182,0-29.355-.357-39.511-1.078-10.16-.717-16.949-1.168-20.362-1.349v14.833c-.181,7.193,4.134,10.788,12.946,10.788h13.754c9.709,0,19.191-.135,28.453-.404,9.258-.27,17.754-.628,25.487-1.079,7.729-.446,13.932-.851,18.61-1.214l10.787,17.531c0,5.575-17.711,8.36-53.13,8.36h-54.209Zm-2.697-69.582h74.167v-17.261c0-3.595-.405-6.111-1.214-7.552-.809-1.437-3.194-2.335-7.147-2.697-3.957-.358-10.699-.539-20.228-.539h-32.633c-8.63,0-12.946,3.599-12.946,10.788v17.261Z" style="fill:url(#o);"/><path d="M807.871,261.191v-120.825h22.115l10.788,5.394c7.552-1.437,16.629-2.697,27.24-3.776,10.606-1.079,22.743-1.618,36.409-1.618h13.484c8.989,0,15.913,1.26,20.768,3.776,4.854,2.52,8.314,5.664,10.383,9.439,2.065,3.776,3.325,7.598,3.776,11.462,.446,3.869,.674,7.147,.674,9.844v86.304h-32.903v-86.843c0-7.189-4.315-10.788-12.945-10.788h-58.795c-3.417,0-5.621,.316-6.607,.944-.99,.632-1.483,2.292-1.483,4.99v91.697h-32.903Z" style="fill:url(#p);"/><path d="M1019.314,261.191c-13.666,0-23.556-3.19-29.666-9.574-6.115-6.38-9.17-15.146-9.17-26.296,0-11.686,3.189-20.674,9.574-26.97,6.38-6.292,16.136-9.439,29.262-9.439h13.755c13.485,0,25.622,.362,36.409,1.079,10.788,.72,19.689,1.44,26.701,2.157v-17.8c0-1.618-.182-3.279-.54-4.99-.362-1.706-1.441-3.101-3.236-4.18-1.799-1.079-4.854-1.618-9.17-1.618h-13.484c-19.6,0-35.963,.316-49.086,.944-13.126,.632-22.026,1.213-26.7,1.753l-2.967-20.497c0-2.516,6.831-4.045,20.498-4.585,13.661-.54,36.497-.809,68.503-.809h13.485c8.988,0,15.912,1.26,20.767,3.776,4.854,2.52,8.314,5.664,10.384,9.439,2.064,3.776,3.324,7.598,3.775,11.462,.446,3.869,.674,7.147,.674,9.844v86.304h-22.115l-10.518-5.394c-7.552,1.26-16.633,2.474-27.24,3.641-10.61,1.172-22.747,1.753-36.409,1.753h-13.485Zm7.013-23.194h61.761c3.953,0,6.292-.358,7.013-1.078,.716-.717,1.079-2.967,1.079-6.743v-20.767h-69.853c-4.854,0-8.226,1.172-10.113,3.506-1.889,2.339-2.832,6.026-2.832,11.058s1.078,8.631,3.236,10.788c2.157,2.158,5.394,3.236,9.709,3.236Z" style="fill:url(#q);"/><path d="M1160.094,261.191v-120.825h22.115l10.788,5.394c7.552-1.437,16.629-2.697,27.24-3.776,10.606-1.079,22.743-1.618,36.409-1.618h13.484c8.989,0,15.913,1.26,20.768,3.776,4.854,2.52,8.314,5.664,10.383,9.439,2.065,3.776,3.325,7.598,3.776,11.462,.446,3.869,.674,7.147,.674,9.844v86.304h-32.903v-86.843c0-7.189-4.315-10.788-12.945-10.788h-58.795c-3.417,0-5.621,.316-6.607,.944-.99,.632-1.483,2.292-1.483,4.99v91.697h-32.903Z" style="fill:url(#r);"/><path d="M1383.674,261.191c-13.666,0-23.017-2.874-28.049-8.631-5.035-5.752-7.551-14.382-7.551-25.891v-63.109h-22.116v-23.194h11.328c3.413,0,5.887-.54,7.416-1.618,1.525-1.079,2.651-3.236,3.372-6.473l5.394-28.858h27.51v36.949h56.097v23.194h-56.097v63.379c0,4.496,1.078,7.463,3.236,8.9,2.157,1.441,5.394,2.157,9.709,2.157h38.027l2.697,20.497c-3.776,.54-9.532,1.125-17.261,1.753-7.733,.633-16.183,.944-25.352,.944h-8.361Z" style="fill:url(#s);"/></g></svg>